<svg version="1" xmlns="http://www.w3.org/2000/svg" width="346.667" height="346.667" viewBox="0 0 260.000000 260.000000"><path d="M61.9 4.4c-.2.3-1.6.7-3.1 1-1.4.2-3.6 1.3-4.8 2.3-5 4.2-30 29.1-30 29.9 0 .5 19.4 20.3 43.1 44l43.1 43.1-3.1 4.4c-4.2 5.9-6.3 8.7-8.2 10.8-.9 1-3.1 4-4.9 6.7-1.9 2.7-3.7 5-4.2 5.2-.4.2-.8 1-.8 1.8s-.7 1.4-1.5 1.4-1.5.7-1.5 1.5-.8 2.2-1.8 3.2-3.4 4-5.2 6.8c-1.9 2.7-4.7 6.3-6.2 8-1.5 1.6-2.8 3.3-2.8 3.8 0 .4-1.1 2-2.5 3.5-1.4 1.6-3.2 3.7-4 4.8-1.3 1.8-2.1 1.2-14-10.6-6.8-6.9-13-12.4-13.6-12.2-.7.2-2.8 2.1-4.8 4.3-2 2.2-5.7 6.3-8.3 9-2.7 2.7-4.8 5.5-4.8 6.2 0 .7 13 14.2 28.9 30.1 24.4 24.4 29.2 28.7 31 28.1 1.1-.3 2.1-1.2 2.1-1.8 0-.7.9-1.8 2-2.5s2-2 2-2.9c0-.9.3-1.4.6-1 .8.8 6.5-4.4 5.8-5.4-.3-.5.1-.6.8-.4.8.3 2.1-.7 3-2.3l1.7-2.8L84 210.5c-6.6-6.6-12-12.4-12-12.8 0-1.1 2.6-3.7 3.8-3.7.5 0 2-.9 3.3-2.1 1.3-1.1 3.7-3 5.3-4.2 1.5-1.2 5.2-4 8-6.3 2.8-2.2 6.5-4.9 8.1-6 1.7-1 3.9-2.9 5-4.1 1.1-1.3 2.5-2.3 3.1-2.3.5 0 1.6-.9 2.4-1.9.7-1.1 1.7-1.8 2.1-1.5.7.4 2.4-.9 10.2-7.8 2.3-2.1 4.7-3.8 5.4-3.8.7 0 1.6-.6 2-1.3 2.8-4.8 2.6-5 47.5 39.3 23.7 23.4 43.4 42.5 43.8 42.5 1.1 0 6-3.9 6-4.7 0-.4 5.8-6.5 12.9-13.5 9.6-9.6 13-13.7 13.6-16.2.7-3.4.7-3.4-40.6-44.7-35.9-35.9-41.1-41.5-39.8-42.6.9-.7 3.5-3.8 5.8-6.8 6.9-9 8.5-11.1 9.8-12.5 2.2-2.3 6.9-10.9 7.7-13.9.4-1.7.2-4.1-.5-5.7-.9-2.4-.9-3.3.5-5.4 1.8-2.7 2.1-7.1.6-8-.5-.3-3 .3-5.5 1.4-4 1.7-4.8 1.8-7.1.6-2.8-1.4-4.3-1.1-11.1 2.4-3.6 1.8-9.9 6.3-13.3 9.4-.8.8-4.4 3.6-8 6.3-3.6 2.7-6.7 5.3-6.9 5.7-.2.5-19.1-17.8-42-40.7C81.2 22.7 62.2 4.1 61.9 4.4z"/></svg>